<svg width="50" height="54" viewBox="0 0 50 54" fill="none" xmlns="http://www.w3.org/2000/svg">
<ellipse cx="25" cy="26.7857" rx="25" ry="26.7857" fill="white"/>
<g clip-path="url(#clip0)">
<path d="M38.9584 18.2863C38.9581 18.2859 38.9578 18.2855 38.9574 18.2851L33.1257 12.067C32.6889 11.6012 31.9822 11.6029 31.5473 12.0711C31.1125 12.5392 31.1142 13.2963 31.5511 13.7622L35.4665 17.9369H11.8304C11.214 17.9369 10.7144 18.4723 10.7144 19.1327C10.7144 19.7931 11.214 20.3285 11.8304 20.3285H35.4664L31.5511 24.5032C31.1142 24.9691 31.1126 25.7262 31.5474 26.1943C31.9823 26.6625 32.689 26.6641 33.1258 26.1984L38.9575 19.9803C38.9578 19.9799 38.9581 19.9795 38.9585 19.9791C39.3956 19.5117 39.3942 18.7521 38.9584 18.2863Z" fill="black"/>
</g>
<g clip-path="url(#clip1)">
<path d="M11.0416 35.2852C11.0419 35.2856 11.0422 35.286 11.0426 35.2863L16.8743 41.5045C17.3111 41.9703 18.0178 41.9685 18.4527 41.5004C18.8875 41.0323 18.8858 40.2752 18.4489 39.8093L14.5335 35.6346H38.1696C38.786 35.6346 39.2856 35.0992 39.2856 34.4388C39.2856 33.7783 38.786 33.243 38.1696 33.243H14.5336L18.4489 29.0682C18.8858 28.6024 18.8874 27.8452 18.4526 27.3772C18.0177 26.9089 17.311 26.9073 16.8742 27.3731L11.0425 33.5912C11.0422 33.5916 11.0419 33.592 11.0415 33.5923C10.6044 34.0598 10.6058 34.8193 11.0416 35.2852Z" fill="black"/>
</g>
<defs>
<clipPath id="clip0">
<rect width="28.5714" height="30.6122" fill="white" transform="translate(10.7144 3.82654)"/>
</clipPath>
<clipPath id="clip1">
<rect width="28.5714" height="30.6122" fill="white" transform="translate(39.2856 49.7449) rotate(-180)"/>
</clipPath>
</defs>
</svg>
