<?xml version="1.0" standalone="no"?>
<!DOCTYPE svg PUBLIC "-//W3C//DTD SVG 20010904//EN"
 "http://www.w3.org/TR/2001/REC-SVG-20010904/DTD/svg10.dtd">
<svg version="1.0" xmlns="http://www.w3.org/2000/svg"
 width="885.000000pt" height="251.000000pt" viewBox="0 0 885.000000 251.000000"
 preserveAspectRatio="xMidYMid meet">

<g transform="translate(0.000000,251.000000) scale(0.100000,-0.100000)"
fill="#000000" stroke="none">
<path d="M1855 2313 c-11 -3 -54 -38 -95 -78 -41 -40 -84 -75 -95 -78 -11 -3
-195 -13 -410 -22 -214 -8 -409 -18 -433 -21 -83 -10 -272 -159 -371 -292
-138 -187 -208 -394 -217 -642 l-4 -125 19 85 c11 47 28 126 39 175 23 103 77
248 127 344 38 71 116 180 138 193 13 7 674 -47 705 -57 21 -7 13 -48 -24
-125 -131 -272 -222 -600 -242 -870 l-7 -105 -40 2 c-22 1 -199 40 -393 87
-194 47 -359 86 -367 86 -17 0 -24 -54 -12 -92 10 -32 37 -51 111 -79 73 -27
106 -66 106 -125 0 -40 -2 -44 -25 -44 -13 0 -64 18 -111 40 -48 22 -91 40
-95 40 -15 0 -9 -53 10 -96 22 -47 61 -88 111 -113 71 -37 463 -182 548 -203
67 -17 117 -22 222 -22 130 -1 186 7 291 40 l47 15 0 93 c1 192 102 364 260
441 75 37 190 46 259 20 91 -35 166 -131 180 -230 3 -25 10 -48 15 -51 5 -3
146 45 312 106 l304 113 4 81 c7 107 36 181 99 250 67 73 128 99 224 94 60 -3
78 -8 108 -31 49 -37 76 -78 90 -137 6 -27 14 -50 18 -50 13 0 42 40 55 77 18
53 20 392 1 417 -12 17 -19 16 -132 -13 -65 -17 -124 -31 -131 -31 -11 0 -14
41 -14 215 0 196 2 215 17 215 9 0 69 5 132 11 85 8 119 15 129 27 14 18 16
119 3 175 -10 42 -44 85 -76 96 -11 4 -123 2 -250 -5 -322 -18 -375 -18 -375
1 0 8 3 15 8 15 4 0 128 14 277 30 148 17 273 30 277 30 14 0 -25 70 -41 75
-9 2 -120 16 -248 30 -211 23 -266 25 -625 24 -216 -1 -402 -3 -413 -6z m428
-69 c92 -6 117 -10 117 -21 0 -8 -9 -17 -19 -20 -11 -3 -17 -11 -15 -18 3 -7
-1 -19 -8 -26 -8 -8 -17 -22 -21 -31 -8 -22 -23 -23 -292 -3 -228 17 -258 21
-253 34 2 5 21 30 43 56 l40 47 146 -6 c80 -3 198 -9 262 -12z m-295 -530 c9
2 62 7 117 11 55 4 110 9 123 12 l22 5 -1 -168 c-1 -93 -4 -223 -8 -288 l-6
-119 -132 -35 -133 -35 0 -88 c0 -65 -3 -89 -12 -89 -21 0 -623 415 -625 431
-1 8 73 77 164 154 92 77 225 190 297 251 183 155 170 151 174 43 2 -79 5 -90
20 -85z m990 -136 l-3 -221 -320 -83 c-176 -46 -328 -83 -337 -84 -17 0 -18
20 -18 275 0 151 1 275 3 276 10 3 601 57 635 58 l42 1 -2 -222z m-1845 -1016
c-6 -141 -162 -202 -398 -157 -116 22 -128 39 -70 100 l34 37 124 -7 c114 -7
127 -6 174 15 29 12 60 31 69 41 11 12 28 19 43 17 24 -3 26 -7 24 -46z"/>
<path d="M3910 1260 l0 -630 425 0 425 0 0 105 0 105 -315 0 -315 0 0 160 0
160 315 0 315 0 0 105 0 105 -315 0 -315 0 0 155 0 155 315 0 315 0 0 105 0
105 -425 0 -425 0 0 -630z"/>
<path d="M5740 1260 l0 -631 318 3 c309 3 318 4 370 27 63 29 124 94 147 159
9 26 19 90 22 143 7 119 -12 192 -62 248 -19 21 -35 44 -35 50 0 6 13 29 29
51 43 60 54 112 49 247 -3 99 -7 126 -27 166 -31 63 -74 105 -141 136 -55 26
-56 26 -362 29 l-308 4 0 -632z m591 383 c58 -49 74 -125 43 -203 -29 -72 -54
-80 -258 -80 l-176 0 0 155 0 155 179 0 179 0 33 -27z m17 -518 c41 -35 55
-75 50 -142 -4 -49 -9 -60 -41 -90 l-37 -33 -190 0 -190 0 0 145 0 145 189 0
c187 0 190 0 219 -25z" style="fill: #ff6600;"/>
<path d="M7850 1571 c-78 -16 -134 -64 -172 -146 -18 -40 -23 -67 -23 -135 0
-104 22 -166 72 -211 61 -53 94 -62 253 -66 105 -3 154 -8 176 -19 69 -35 71
-128 4 -167 -24 -14 -61 -17 -244 -17 l-216 0 0 -91 0 -91 248 4 c285 4 304 8
376 89 54 60 70 114 64 212 -9 135 -81 225 -197 247 -29 5 -109 10 -176 10
-116 0 -123 1 -144 24 -35 37 -39 102 -9 146 l24 35 207 3 207 2 0 90 0 90
-207 -1 c-115 -1 -224 -4 -243 -8z" style="fill: #ff6600;"/>
<path d="M4920 1465 l0 -105 215 0 c118 0 215 -4 215 -9 0 -4 -97 -125 -215
-267 l-215 -259 0 -97 0 -98 335 0 335 0 0 105 0 105 -215 0 c-118 0 -215 3
-214 8 0 4 96 122 214 262 l214 255 1 103 0 102 -335 0 -335 0 0 -105z"/>
<path d="M6730 1268 c0 -319 7 -394 40 -463 25 -51 82 -110 130 -135 89 -45
238 -51 373 -15 21 6 27 4 27 -9 0 -14 15 -16 100 -16 l100 0 0 470 0 470
-100 0 -99 0 -3 -330 -3 -330 -33 -32 c-31 -32 -36 -33 -124 -37 -115 -4 -160
9 -187 53 -20 32 -21 47 -21 355 l0 321 -100 0 -100 0 0 -302z" style="fill: #ff6600;"/>
<path d="M2955 1041 c-48 -22 -97 -70 -122 -120 -14 -27 -18 -58 -17 -128 0
-91 0 -93 -25 -101 -26 -9 -26 -9 15 -30 92 -47 196 -37 265 25 54 49 81 104
86 178 6 81 -24 140 -87 173 -53 27 -63 27 -115 3z m-65 -201 c0 -32 7 -48 34
-78 32 -34 38 -37 85 -35 39 2 51 -1 51 -12 0 -35 -97 -48 -150 -20 -40 21
-60 63 -60 130 0 48 2 55 20 55 17 0 20 -7 20 -40z"/>
<path d="M1735 681 c-117 -29 -219 -145 -244 -278 -10 -49 -1 -126 19 -162 16
-31 12 -37 -27 -53 l-38 -14 43 -23 c86 -44 211 -46 299 -4 57 27 121 97 155
170 77 165 8 343 -142 366 -19 3 -48 2 -65 -2z m-145 -253 c0 -78 28 -133 85
-166 40 -23 59 -24 143 -6 47 9 43 -20 -8 -46 -52 -27 -143 -27 -186 -1 -44
27 -74 81 -81 143 -6 63 11 138 32 138 12 0 15 -14 15 -62z"/>
</g>
</svg>
