<svg width="28" height="28" viewBox="0 0 28 28" fill="none" xmlns="http://www.w3.org/2000/svg">
<g clip-path="url(#clip0)">
<path d="M26.9254 9.03964H25.2859C25.1952 8.87825 25.0953 8.72294 24.986 8.57468C24.9715 8.55073 24.9546 8.52842 24.9355 8.50802C24.1186 7.44188 22.8332 6.7526 21.3894 6.7526H19.6891C19.4626 6.7526 19.279 6.93624 19.279 7.16276C19.279 7.38927 19.4626 7.57292 19.6891 7.57292H21.3894C22.2519 7.57292 23.0448 7.87457 23.6698 8.3771H18.0024C17.7961 8.3771 17.604 8.48811 17.5011 8.66683C17.3981 8.8456 17.3985 9.06747 17.502 9.24592L20.6293 14.634C20.8236 14.9688 21.1398 15.2106 21.5024 15.3175C21.5224 15.3246 21.543 15.3303 21.5643 15.3343C21.6805 15.3633 21.8007 15.379 21.9231 15.379H25.0354V16.2921H24.3222C23.8226 16.2921 23.4162 16.6985 23.4162 17.198V18.2367C23.4162 18.7362 23.8226 19.1426 24.3222 19.1426H25.0354V20.3484H22.8076L16.0572 8.71764C15.9353 8.50769 15.7087 8.37721 15.466 8.37721H2.18668C1.82924 8.37721 1.53847 8.66776 1.53847 9.02481V12.0267H0.820312V7.57286H17.7849C18.0114 7.57286 18.1951 7.38922 18.1951 7.1627C18.1951 6.93619 18.0114 6.75255 17.7849 6.75255H8.50741L7.52954 5.48161C7.29116 5.1717 6.91534 4.98663 6.52433 4.98663H3.03647C2.44486 4.98663 1.9635 5.46799 1.9635 6.0596V6.75255H0.690156C0.309586 6.75255 0 7.06241 0 7.44325V20.4786C0 20.8591 0.309586 21.1687 0.690156 21.1687H2.57879C2.95433 22.2415 3.97622 23.0133 5.17557 23.0133C6.37492 23.0133 7.39687 22.2415 7.77235 21.1687H9.40291C9.62943 21.1687 9.81307 20.9851 9.81307 20.7586C9.81307 20.5321 9.62943 20.3484 9.40291 20.3484H7.92427C7.92515 20.3198 7.92646 20.2913 7.92646 20.2624C7.92646 18.7455 6.69238 17.5114 5.17552 17.5114C3.65865 17.5114 2.42462 18.7455 2.42462 20.2624C2.42462 20.2912 2.42594 20.3198 2.42681 20.3484H0.820312V12.847H17.5055L21.8591 20.3485H19.7474C19.7483 20.3198 19.7496 20.2913 19.7496 20.2624C19.7496 18.7456 18.5155 17.5115 16.9987 17.5115C15.4818 17.5115 14.2478 18.7456 14.2478 20.2624C14.2478 20.2913 14.2491 20.3198 14.25 20.3485H11.3171C11.0906 20.3485 10.9069 20.5321 10.9069 20.7586C10.9069 20.9851 11.0906 21.1688 11.3171 21.1688H14.402C14.7775 22.2416 15.7994 23.0133 16.9987 23.0133C18.1981 23.0133 19.22 22.2415 19.5955 21.1688C20.2466 21.1688 25.1449 21.169 25.1655 21.169C25.451 21.169 25.6966 20.9948 25.8014 20.747C25.8364 20.6645 25.8558 20.5738 25.8558 20.4786V11.2189C25.8558 10.7452 25.7809 10.2887 25.6437 9.85995H26.9254C27.0657 9.85995 27.1797 9.97403 27.1797 10.1142V11.342C27.1797 11.5231 27.1141 11.6979 26.9944 11.8345L26.8396 12.0117C26.6906 12.1823 26.7082 12.4414 26.8787 12.5904C26.9565 12.6584 27.0526 12.6917 27.1484 12.6917C27.2627 12.6917 27.3764 12.6441 27.4575 12.5513L27.6119 12.3746C27.8622 12.0887 28.0001 11.7221 28.0001 11.342V10.1143C28 9.52171 27.5179 9.03964 26.9254 9.03964ZM25.0353 18.3223H24.3222C24.2749 18.3223 24.2365 18.2839 24.2365 18.2367V17.1981C24.2365 17.1508 24.275 17.1124 24.3222 17.1124H25.0353V18.3223ZM2.78381 6.05966C2.78381 5.92037 2.89718 5.807 3.03647 5.807H6.52427C6.66236 5.807 6.79509 5.87235 6.8793 5.98184L7.47234 6.7526H2.78381V6.05966ZM5.17557 18.3318C6.24012 18.3318 7.1062 19.1979 7.1062 20.2624C7.1062 21.327 6.24012 22.193 5.17557 22.193C4.11102 22.193 3.24499 21.327 3.24499 20.2624C3.24499 19.1979 4.11102 18.3318 5.17557 18.3318ZM9.12384 9.19757H12.5176V12.0267H9.12384V9.19757ZM8.30353 12.0267H4.90968V9.19757H8.30353V12.0267ZM2.35884 9.19757H4.08942V12.0267H2.35884V9.19757ZM13.338 12.0267V9.19757H15.3873L17.0293 12.0267H13.338ZM16.9987 22.193C15.9341 22.193 15.0681 21.327 15.0681 20.2624C15.0681 19.1979 15.9341 18.3318 16.9987 18.3318C18.0632 18.3318 18.9293 19.1979 18.9293 20.2624C18.9293 21.327 18.0632 22.193 16.9987 22.193ZM18.4223 9.19741H21.2296V14.0342L18.4223 9.19741ZM22.0499 14.5587V9.19735H24.4219C24.8091 9.77633 25.0354 10.4716 25.0354 11.2189V14.5586H22.0499V14.5587Z" fill="white"/>
<path d="M5.17556 21.5127C5.86495 21.5127 6.42582 20.9519 6.42582 20.2625C6.42582 19.5731 5.86495 19.0122 5.17556 19.0122C4.48617 19.0122 3.92529 19.5731 3.92529 20.2625C3.92529 20.9519 4.48617 21.5127 5.17556 21.5127ZM5.17556 19.8325C5.41263 19.8325 5.60551 20.0254 5.60551 20.2625C5.60551 20.4995 5.41263 20.6924 5.17556 20.6924C4.93849 20.6924 4.74561 20.4995 4.74561 20.2625C4.74561 20.0254 4.93849 19.8325 5.17556 19.8325Z" fill="white"/>
<path d="M16.9988 19.0122C16.3094 19.0122 15.7485 19.5731 15.7485 20.2625C15.7485 20.9519 16.3094 21.5127 16.9988 21.5127C17.6882 21.5127 18.2491 20.9519 18.2491 20.2625C18.2491 19.5731 17.6882 19.0122 16.9988 19.0122ZM16.9988 20.6924C16.7617 20.6924 16.5688 20.4995 16.5688 20.2625C16.5688 20.0254 16.7617 19.8325 16.9988 19.8325C17.2359 19.8325 17.4288 20.0254 17.4288 20.2625C17.4288 20.4995 17.2359 20.6924 16.9988 20.6924Z" fill="white"/>
</g>
<defs>
<clipPath id="clip0">
<rect width="28" height="28" fill="white"/>
</clipPath>
</defs>
</svg>
