<svg width="38" height="38" viewBox="0 0 38 38" fill="none" xmlns="http://www.w3.org/2000/svg">
<path d="M29.0206 18.6626H31.6713C32.2705 18.6626 32.7581 18.1751 32.7581 17.5758V14.9252C32.7581 14.3259 32.2705 13.8384 31.6713 13.8384H29.0206C28.4214 13.8384 27.9339 14.3259 27.9339 14.9252V17.5758C27.9339 18.1751 28.4214 18.6626 29.0206 18.6626ZM29.0471 14.9517H31.6448V17.5493H29.0471V14.9517ZM29.0206 25.7134H31.6713C32.2705 25.7134 32.7581 25.2258 32.7581 24.6266V21.9759C32.7581 21.3767 32.2705 20.8892 31.6713 20.8892H29.0206C28.4214 20.8892 27.9339 21.3767 27.9339 21.9759V24.6266C27.9339 25.2258 28.4214 25.7134 29.0206 25.7134ZM29.0471 22.0024H31.6448V24.6001H29.0471V22.0024ZM21.4566 18.6626H24.1072C24.7065 18.6626 25.194 18.1751 25.194 17.5758V14.9252C25.194 14.3259 24.7065 13.8384 24.1072 13.8384H21.4566C20.8573 13.8384 20.3698 14.3259 20.3698 14.9252V17.5758C20.3698 18.1751 20.8573 18.6626 21.4566 18.6626ZM21.4831 14.9517H24.0807V17.5493H21.4831V14.9517ZM8.97906 27.6094H6.32841C5.72917 27.6094 5.24163 28.0969 5.24163 28.6962V31.3468C5.24163 31.9461 5.72917 32.4336 6.32841 32.4336H8.97906C9.5783 32.4336 10.0658 31.9461 10.0658 31.3468V28.6962C10.0658 28.0969 9.5783 27.6094 8.97906 27.6094ZM8.95256 31.3203H6.35491V28.7227H8.95256V31.3203ZM8.97906 13.8384H6.32841C5.72917 13.8384 5.24163 14.3259 5.24163 14.9252V17.5758C5.24163 18.1751 5.72917 18.6626 6.32841 18.6626H8.97906C9.5783 18.6626 10.0658 18.1751 10.0658 17.5758V14.9252C10.0658 14.3259 9.5783 13.8384 8.97906 13.8384ZM8.95256 17.5493H6.35491V14.9517H8.95256V17.5493ZM21.4566 25.5481H24.1072C24.7065 25.5481 25.194 25.0606 25.194 24.4613V21.8107C25.194 21.2114 24.7065 20.7239 24.1072 20.7239H21.4566C20.8573 20.7239 20.3698 21.2114 20.3698 21.8107V24.4613C20.3698 25.0606 20.8573 25.5481 21.4566 25.5481ZM21.4831 21.8372H24.0807V24.4348H21.4831V21.8372ZM33.3109 2.54377H30.931V1.69271C30.931 0.759332 30.1717 0 29.2383 0H28.9827C28.0494 0 27.2901 0.759332 27.2901 1.69271V2.54377H10.7096V1.69271C10.7096 0.759332 9.95028 0 9.01691 0H8.7613C7.82793 0 7.06859 0.759332 7.06859 1.69271V2.54377H4.68877C3.15207 2.54377 1.90186 3.79399 1.90186 5.33069V35.2168C1.90186 36.7515 3.15036 38 4.68506 38H33.3148C34.8495 38 36.098 36.7515 36.098 35.2168V5.33069C36.0979 3.79399 34.8477 2.54377 33.3109 2.54377ZM28.4034 1.69271C28.4034 1.3732 28.6633 1.11328 28.9828 1.11328H29.2384C29.5579 1.11328 29.8178 1.3732 29.8178 1.69271V2.54377H28.4034V1.69271ZM8.18195 1.69271C8.18195 1.3732 8.44186 1.11328 8.76138 1.11328H9.01698C9.3365 1.11328 9.59641 1.3732 9.59641 1.69271V2.54377H8.18202V1.69271H8.18195ZM34.9846 35.2168C34.9846 36.1376 34.2355 36.8867 33.3147 36.8867H4.68498C3.76415 36.8867 3.01506 36.1376 3.01506 35.2168V35.2133C3.48145 35.5647 4.06118 35.7734 4.68877 35.7734H27.2574C28.0018 35.7734 28.7017 35.4835 29.2281 34.9571L34.9846 29.2006V35.2168ZM28.6601 33.9507C28.7037 33.7706 28.7275 33.5827 28.7275 33.3894V29.6737C28.7275 28.9731 29.2976 28.403 29.9983 28.403H33.7139C33.9072 28.403 34.0951 28.3792 34.2752 28.3356L28.6601 33.9507ZM34.9846 10.4985H11.2663C10.9588 10.4985 10.7096 10.7478 10.7096 11.0552C10.7096 11.3626 10.9588 11.6118 11.2663 11.6118H34.9846V26.019C34.9846 26.7197 34.4146 27.2898 33.7139 27.2898H29.9983C28.6837 27.2898 27.6142 28.3593 27.6142 29.6738V33.3895C27.6142 34.0902 27.0441 34.6602 26.3435 34.6602H4.68877C3.76593 34.6602 3.01514 33.9094 3.01514 32.9865V11.6118H9.0397C9.34711 11.6118 9.59634 11.3626 9.59634 11.0552C9.59634 10.7478 9.34711 10.4985 9.0397 10.4985H3.01506V5.33069C3.01506 4.40785 3.76586 3.65705 4.68869 3.65705H7.06859V5.29373C7.06859 6.2271 7.82793 6.98643 8.7613 6.98643C9.06872 6.98643 9.31794 6.73721 9.31794 6.42979C9.31794 6.12238 9.06872 5.87315 8.7613 5.87315C8.44179 5.87315 8.18187 5.61324 8.18187 5.29373V3.65705H27.2901V5.29373C27.2901 6.2271 28.0494 6.98643 28.9828 6.98643C29.2902 6.98643 29.5394 6.73721 29.5394 6.42979C29.5394 6.12238 29.2902 5.87315 28.9828 5.87315C28.6633 5.87315 28.4034 5.61324 28.4034 5.29373V3.65705H33.311C34.2338 3.65705 34.9846 4.40785 34.9846 5.33069V10.4985ZM8.97906 20.7239H6.32841C5.72917 20.7239 5.24163 21.2114 5.24163 21.8107V24.4613C5.24163 25.0606 5.72917 25.5481 6.32841 25.5481H8.97906C9.5783 25.5481 10.0658 25.0606 10.0658 24.4613V21.8107C10.0658 21.2113 9.5783 20.7239 8.97906 20.7239ZM8.95256 24.4348H6.35491V21.8372H8.95256V24.4348ZM13.8925 18.6626H16.5431C17.1424 18.6626 17.6299 18.1751 17.6299 17.5758V14.9252C17.6299 14.3259 17.1424 13.8384 16.5431 13.8384H13.8925C13.2932 13.8384 12.8057 14.3259 12.8057 14.9252V17.5758C12.8057 18.1751 13.2932 18.6626 13.8925 18.6626ZM13.919 14.9517H16.5166V17.5493H13.919V14.9517ZM21.4824 31.3203C21.4686 31.0251 21.2249 30.7902 20.9263 30.7902C20.6189 30.7902 20.3697 31.0394 20.3697 31.3468C20.3697 31.9461 20.8573 32.4336 21.4565 32.4336H24.1071C24.7064 32.4336 25.1939 31.9461 25.1939 31.3468V28.6962C25.1939 28.0969 24.7064 27.6094 24.1071 27.6094H21.4565C20.8573 27.6094 20.3697 28.0969 20.3697 28.6962V29.4606C20.3697 29.768 20.6189 30.0173 20.9263 30.0173C21.2338 30.0173 21.483 29.768 21.483 29.4606V28.7227H24.0806V31.3203H21.4824ZM13.8925 25.5481H16.5431C17.1424 25.5481 17.6299 25.0606 17.6299 24.4613V21.8107C17.6299 21.2114 17.1424 20.7239 16.5431 20.7239H13.8925C13.2932 20.7239 12.8057 21.2114 12.8057 21.8107V24.4613C12.8057 25.0606 13.2932 25.5481 13.8925 25.5481ZM13.919 21.8372H16.5166V24.4348H13.919V21.8372ZM13.8925 32.4336H16.5431C17.1424 32.4336 17.6299 31.9461 17.6299 31.3468V28.6962C17.6299 28.0969 17.1424 27.6094 16.5431 27.6094H13.8925C13.2932 27.6094 12.8057 28.0969 12.8057 28.6962V31.3468C12.8057 31.9461 13.2932 32.4336 13.8925 32.4336ZM13.919 28.7227H16.5166V31.3203H13.919V28.7227Z" fill="#4F4F4F"/>
</svg>
