<svg width="28" height="28" viewBox="0 0 28 28" fill="none" xmlns="http://www.w3.org/2000/svg">
<path d="M27.9792 6.0319C27.9792 5.9999 28.0012 5.96876 27.9997 5.93713L19.4551 14.1704L27.9895 22.1406C27.9945 22.0836 27.9792 22.0262 27.9792 21.9681V6.0319Z" fill="#CCCCCC"/>
<path d="M18.1509 15.4374L14.6627 18.7935C14.4862 18.9633 14.2583 19.0485 14.0302 19.0485C13.8068 19.0485 13.5835 18.967 13.4082 18.8036L9.92949 15.562L1.33936 23.8419C1.54823 23.917 1.77243 23.9753 2.00721 23.9753H26.0532C26.4019 23.9753 26.7289 23.8691 27.0132 23.7107L18.1509 15.4374Z" fill="#CCCCCC"/>
<path d="M14.0203 16.8796L27.0606 4.31802C26.7654 4.14248 26.4217 4.02472 26.0534 4.02472H2.00735C1.52769 4.02472 1.08817 4.21096 0.74585 4.49502L14.0203 16.8796Z" fill="#CCCCCC"/>
<path d="M0 6.33801V21.968C0 22.1474 0.0412391 22.3204 0.086006 22.4857L8.56958 14.3163L0 6.33801Z" fill="#CCCCCC"/>
</svg>
