<svg width="28" height="18" viewBox="0 0 28 18" fill="none" xmlns="http://www.w3.org/2000/svg">
<g clip-path="url(#clip0)">
<path d="M24.7903 1.54613C22.6609 2.86263 22.2878 3.08835 22.2695 3.07531C21.6328 2.6356 21.4253 2.49861 21.0196 2.25201C19.2151 1.1534 17.361 0.450144 15.5983 0.197021C14.9942 0.109602 14.6445 0.0861168 14 0.0861168C13.3555 0.0861168 13.0058 0.109602 12.4017 0.197021C9.89525 0.557133 7.274 1.80056 4.73103 3.83337C3.95601 4.45312 3.36235 4.98677 2.57558 5.77354C1.79795 6.54986 1.2082 7.20224 0.618453 7.93943C0.139609 8.537 0.0861137 8.63877 0.0861137 8.95061C0.0861137 9.26766 0.139609 9.36683 0.668034 10.0231C1.25648 10.7525 1.80578 11.3592 2.58211 12.1342C3.24884 12.7996 3.75247 13.2615 4.38267 13.7847L4.63318 13.9922L4.56924 14.0313C4.53402 14.0535 3.49282 14.6967 2.25331 15.4613L0.00130475 16.8509L0 17.3754V17.9012H0.42274H0.844175L3.30624 16.3812C4.66058 15.5448 5.77092 14.8611 5.77484 14.8611C5.78006 14.8611 5.8479 14.9068 5.9288 14.9629C8.03206 16.4425 10.2984 17.4015 12.4017 17.7042C13.0058 17.7916 13.3555 17.8151 14 17.8151C14.6445 17.8151 14.9942 17.7916 15.5983 17.7042C18.3344 17.3102 21.1957 15.8697 23.9553 13.499C25.1282 12.4904 26.3651 11.2196 27.3033 10.0583C27.8552 9.37596 27.9139 9.26897 27.9139 8.95061C27.9139 8.69096 27.8643 8.56571 27.6386 8.26953C26.5974 6.89823 25.0252 5.27773 23.5795 4.08519C23.4986 4.01734 23.436 3.95862 23.4425 3.9521C23.4477 3.94688 24.4746 3.31147 25.7232 2.54036L27.9935 1.13905L27.9974 0.568876L28 3.8147e-06L27.6451 0.00130844H27.2889L24.7903 1.54613ZM14.6654 1.94409C16.5364 2.09674 18.3827 2.76869 20.3385 4.0082C20.4637 4.08779 20.5603 4.15695 20.5538 4.16217C20.5277 4.18565 18.3487 5.52302 18.3318 5.52694C18.32 5.52955 18.277 5.48779 18.2274 5.42517C18.1113 5.28034 17.8073 4.9672 17.6403 4.82237C16.7752 4.06431 15.764 3.61547 14.6067 3.47587C14.3314 3.44194 13.6725 3.44194 13.3933 3.47456C11.8472 3.65853 10.4928 4.44138 9.56906 5.6822C9.0876 6.32936 8.75098 7.09395 8.5931 7.89376C8.51743 8.27736 8.50177 8.46524 8.50177 8.95061C8.50177 9.34595 8.50438 9.42684 8.53178 9.62256C8.56701 9.89264 8.61007 10.1131 8.67139 10.3467C8.74445 10.6285 8.81491 10.8255 8.98714 11.2378C8.99888 11.2665 9.0028 11.2913 8.99497 11.2979C8.98844 11.3031 8.45219 11.6358 7.80242 12.0363C7.15266 12.4369 6.55247 12.8075 6.46897 12.8596L6.315 12.9549L6.10363 12.7905C5.64175 12.4291 5.12637 11.992 4.64492 11.5536C4.32134 11.2574 3.36104 10.2971 3.07139 9.98136C2.67344 9.54427 2.17894 8.97279 2.17894 8.9493C2.17894 8.93626 2.40205 8.67009 2.64865 8.38957C4.29655 6.50942 6.20541 4.87195 8.01379 3.7864C9.12414 3.12097 10.2397 2.61864 11.2665 2.32377C12.0755 2.09152 12.7305 1.98192 13.6281 1.92582C13.7651 1.91669 14.4958 1.92973 14.6654 1.94409ZM21.9042 5.11724C22.2982 5.42517 22.7888 5.83747 23.1528 6.16496C23.8561 6.79907 24.7068 7.6589 25.3266 8.36347C25.5784 8.65052 25.8211 8.93887 25.8211 8.95191C25.8211 8.95844 25.7519 9.04455 25.6684 9.14241C24.1432 10.943 22.4091 12.5204 20.6999 13.6608C18.8889 14.869 17.1157 15.6101 15.4091 15.871C14.8925 15.9506 14.5493 15.9754 14 15.9754C13.4507 15.9754 13.1049 15.9493 12.5909 15.871C11.0408 15.6322 9.42684 14.9942 7.78677 13.9713C7.63672 13.8787 7.51538 13.7978 7.51538 13.7925C7.51538 13.7808 9.70475 12.4265 9.73346 12.4199C9.7439 12.4173 10.0884 12.206 10.4967 11.9502C10.9064 11.6945 11.2548 11.4779 11.2731 11.4688C11.2913 11.4596 11.3083 11.4479 11.3122 11.4427C11.324 11.4257 17.4367 7.65629 17.4967 7.62889C17.605 7.57801 18.8589 6.80951 18.9385 6.74427C18.9972 6.6973 21.7281 4.99721 21.7476 4.99721C21.7489 4.99721 21.8194 5.0507 21.9042 5.11724ZM14.5349 5.32209C15.3204 5.44213 16.0198 5.79441 16.5899 6.35806L16.7452 6.51203L16.6682 6.56161C16.3329 6.77428 10.622 10.2932 10.6089 10.2971C10.5868 10.3023 10.5424 10.1953 10.4824 9.98789C10.104 8.68966 10.4563 7.31314 11.4088 6.35937C12.0272 5.74222 12.8257 5.37167 13.713 5.29208C13.8682 5.27773 14.364 5.296 14.5349 5.32209Z" fill="#CCCCCC"/>
</g>
<defs>
<clipPath id="clip0">
<rect width="28" height="17.9012" fill="white"/>
</clipPath>
</defs>
</svg>
