<svg width="28" height="28" viewBox="0 0 28 28" fill="none" xmlns="http://www.w3.org/2000/svg">
<g clip-path="url(#clip0)">
<path d="M6.75813 14.7684L19.709 27.6834C20.1333 28.1063 20.8203 28.1056 21.2439 27.6812C21.6671 27.2569 21.666 26.5695 21.2417 26.1463L9.06172 14L21.2421 1.85369C21.6664 1.43041 21.6675 0.743481 21.2443 0.319107C21.0319 0.106373 20.7538 5.72205e-06 20.4756 5.72205e-06C20.1981 5.72205e-06 19.921 0.105661 19.709 0.316919L6.75813 13.2316C6.55376 13.4349 6.43908 13.7116 6.43908 14C6.43908 14.2883 6.55409 14.5647 6.75813 14.7684Z" fill="#ff6600"/>
</g>
<defs>
<clipPath id="clip0">
<rect width="28" height="28" fill="white" transform="translate(28 28) rotate(180)"/>
</clipPath>
</defs>
</svg>
