<svg width="28" height="28" viewBox="0 0 28 28" fill="none" xmlns="http://www.w3.org/2000/svg">
<path d="M27.822 13.4554C27.5719 13.1133 21.6119 5.07697 13.9999 5.07697C6.38784 5.07697 0.427548 13.1133 0.17768 13.4551C-0.0592267 13.7797 -0.0592267 14.22 0.17768 14.5446C0.427548 14.8868 6.38784 22.9231 13.9999 22.9231C21.6119 22.9231 27.5719 14.8868 27.822 14.5449C28.0593 14.2204 28.0593 13.7797 27.822 13.4554ZM13.9999 21.077C8.3928 21.077 3.53648 15.7431 2.09891 13.9994C3.53462 12.2542 8.38077 6.92311 13.9999 6.92311C19.6067 6.92311 24.4626 12.256 25.9008 14.0007C24.4651 15.7459 19.619 21.077 13.9999 21.077Z" fill="#CCCCCC"/>
<path d="M13.9999 8.46146C10.946 8.46146 8.46143 10.9461 8.46143 13.9999C8.46143 17.0538 10.946 19.5384 13.9999 19.5384C17.0538 19.5384 19.5384 17.0538 19.5384 13.9999C19.5384 10.9461 17.0538 8.46146 13.9999 8.46146ZM13.9999 17.6922C11.9639 17.6922 10.3076 16.0359 10.3076 13.9999C10.3076 11.964 11.9639 10.3077 13.9999 10.3077C16.0359 10.3077 17.6922 11.964 17.6922 13.9999C17.6922 16.0359 16.0359 17.6922 13.9999 17.6922Z" fill="#CCCCCC"/>
</svg>
