<svg width="28" height="28" viewBox="0 0 28 28" fill="none" xmlns="http://www.w3.org/2000/svg">
<path d="M14 0C6.2804 0 0 6.2804 0 14C0 17.381 1.20493 20.4857 3.20787 22.9077C3.213 22.9147 3.21347 22.9236 3.21907 22.9301C4.66527 24.6741 6.48153 26.0111 8.50547 26.8749C8.5288 26.8847 8.55167 26.8954 8.575 26.9052C8.7388 26.9743 8.90447 27.0382 9.0706 27.1007C9.13593 27.1255 9.20127 27.1507 9.26753 27.1745C9.4108 27.2258 9.555 27.2743 9.70013 27.321C9.793 27.3509 9.88587 27.3803 9.97967 27.4083C10.108 27.4465 10.2368 27.4834 10.3665 27.5184C10.4804 27.5492 10.5952 27.5777 10.71 27.6052C10.8262 27.6332 10.9429 27.6612 11.06 27.6859C11.1907 27.7139 11.3227 27.7387 11.4553 27.7629C11.5617 27.7825 11.6676 27.8031 11.7749 27.8203C11.9219 27.8441 12.0699 27.8628 12.2183 27.8819C12.3139 27.8941 12.4091 27.9081 12.5053 27.9183C12.6733 27.9361 12.8427 27.9487 13.0125 27.9603C13.0914 27.9659 13.1698 27.9743 13.2491 27.9785C13.4969 27.9925 13.7475 28 14 28C14.2525 28 14.5031 27.9925 14.7518 27.9795C14.8311 27.9753 14.9095 27.9669 14.9884 27.9613C15.1583 27.9491 15.3277 27.937 15.4957 27.9193C15.5918 27.909 15.687 27.895 15.7827 27.8829C15.9311 27.8637 16.079 27.8451 16.226 27.8213C16.3329 27.804 16.4393 27.7835 16.5457 27.7639C16.6777 27.7396 16.8098 27.7149 16.9409 27.6869C17.0581 27.6617 17.1743 27.6341 17.2909 27.6061C17.4057 27.5781 17.5205 27.5497 17.6344 27.5193C17.7641 27.4848 17.8929 27.4475 18.0213 27.4092C18.1151 27.3812 18.2079 27.3518 18.3008 27.3219C18.4459 27.2753 18.5901 27.2267 18.7334 27.1754C18.7992 27.1516 18.8645 27.1264 18.9303 27.1017C19.0969 27.0391 19.2621 26.9747 19.4259 26.9061C19.4493 26.8963 19.4721 26.8856 19.4955 26.8758C21.5189 26.012 23.3357 24.675 24.7819 22.9311C24.7875 22.9245 24.7879 22.9152 24.7931 22.9087C26.7951 20.4857 28 17.381 28 14C28 6.2804 21.7196 0 14 0ZM19.6733 25.7693C19.6663 25.7726 19.6597 25.7763 19.6527 25.7796C19.4861 25.8599 19.3167 25.9355 19.1459 26.0092C19.1072 26.0255 19.0689 26.0423 19.0302 26.0587C18.8809 26.1212 18.7297 26.1805 18.5775 26.2374C18.5141 26.2612 18.4506 26.2845 18.3867 26.3069C18.2518 26.355 18.1165 26.4012 17.9797 26.4451C17.8948 26.4721 17.8094 26.4978 17.724 26.523C17.6027 26.5594 17.4809 26.5944 17.3577 26.6271C17.2541 26.6546 17.1495 26.6798 17.045 26.7045C16.9353 26.7307 16.8261 26.7573 16.7155 26.7806C16.5947 26.8063 16.4729 26.8282 16.3515 26.8501C16.2531 26.8683 16.1551 26.8875 16.0557 26.9033C15.9189 26.9248 15.7808 26.9421 15.6431 26.9593C15.5559 26.9705 15.4691 26.9836 15.3809 26.9929C15.2236 27.0097 15.0649 27.0205 14.9067 27.0317C14.8363 27.0363 14.7663 27.0443 14.6949 27.048C14.4639 27.0601 14.2324 27.0667 14 27.0667C13.7676 27.0667 13.5361 27.0601 13.3056 27.048C13.2347 27.0443 13.1647 27.0368 13.0937 27.0317C12.9351 27.0209 12.7769 27.0097 12.6196 26.9929C12.5314 26.9836 12.4446 26.9705 12.3573 26.9593C12.2197 26.9421 12.0815 26.9248 11.9448 26.9033C11.8454 26.8875 11.7474 26.8683 11.6489 26.8501C11.5271 26.8282 11.4053 26.8058 11.2849 26.7806C11.1743 26.7573 11.0647 26.7307 10.9555 26.7045C10.8509 26.6793 10.7464 26.6546 10.6428 26.6271C10.5201 26.5944 10.3978 26.5589 10.2765 26.523C10.1911 26.4978 10.1057 26.4721 10.0207 26.4451C9.884 26.4012 9.7482 26.355 9.6138 26.3069C9.54987 26.2841 9.4864 26.2607 9.42293 26.2374C9.2708 26.1805 9.1196 26.1212 8.97027 26.0587C8.93153 26.0428 8.89373 26.026 8.855 26.0097C8.6842 25.9364 8.5148 25.8603 8.34773 25.7801C8.34073 25.7768 8.3342 25.7735 8.3272 25.7698C6.699 24.9821 5.26073 23.8639 4.0936 22.5059C4.99567 19.1842 7.54927 16.5065 10.8346 15.4411C10.8995 15.4807 10.9671 15.5162 11.0339 15.5535C11.0731 15.5755 11.1118 15.5988 11.1515 15.6198C11.2905 15.6935 11.4315 15.7626 11.5757 15.8247C11.6863 15.8732 11.8006 15.9143 11.9145 15.9563C11.9369 15.9642 11.9593 15.9731 11.9817 15.981C12.6145 16.205 13.2916 16.3333 14 16.3333C14.7084 16.3333 15.3855 16.205 16.0179 15.981C16.0403 15.9731 16.0627 15.9642 16.0851 15.9563C16.1989 15.9143 16.3133 15.8732 16.4239 15.8247C16.5681 15.7626 16.709 15.6935 16.8481 15.6198C16.8877 15.5983 16.9265 15.5755 16.9657 15.5535C17.0324 15.5162 17.1005 15.4807 17.1659 15.4406C20.4512 16.5065 23.0043 19.1842 23.9069 22.5055C22.7397 23.863 21.3015 24.9811 19.6733 25.7693ZM8.86667 10.2667C8.86667 7.43633 11.1697 5.13333 14 5.13333C16.8303 5.13333 19.1333 7.43633 19.1333 10.2667C19.1333 12.0671 18.1995 13.6514 16.7925 14.5679C16.6087 14.6874 16.4173 14.7943 16.2209 14.8876C16.1975 14.8988 16.1747 14.9105 16.1513 14.9212C14.7999 15.5358 13.2001 15.5358 11.8487 14.9212C11.8253 14.9105 11.802 14.8988 11.7791 14.8876C11.5822 14.7943 11.3913 14.6874 11.2075 14.5679C9.80047 13.6514 8.86667 12.0671 8.86667 10.2667ZM24.6069 21.6174C23.5489 18.4935 21.1353 15.9689 18.0516 14.7695C19.285 13.6584 20.0667 12.054 20.0667 10.2667C20.0667 6.9216 17.3451 4.2 14 4.2C10.6549 4.2 7.93333 6.9216 7.93333 10.2667C7.93333 12.054 8.715 13.6584 9.94887 14.7695C6.86513 15.9693 4.45153 18.4935 3.3936 21.6174C1.84753 19.4712 0.933333 16.8411 0.933333 14C0.933333 6.79513 6.79513 0.933333 14 0.933333C21.2049 0.933333 27.0667 6.79513 27.0667 14C27.0667 16.8411 26.1525 19.4712 24.6069 21.6174Z" fill="black"/>
</svg>
